<?xml version="1.0" standalone="no"?>
<!DOCTYPE svg PUBLIC "-//W3C//DTD SVG 20010904//EN"
 "http://www.w3.org/TR/2001/REC-SVG-20010904/DTD/svg10.dtd">
<svg version="1.0" xmlns="http://www.w3.org/2000/svg"
 width="700.000000pt" height="700.000000pt" viewBox="0 0 700.000000 700.000000"
 preserveAspectRatio="xMidYMid meet">
<metadata>
Created by potrace 1.14, written by Peter Selinger 2001-2017
</metadata>
<g transform="translate(0.000000,700.000000) scale(0.100000,-0.100000)"
fill="#000000" stroke="none">
<path d="M3050 5923 c-337 -43 -609 -173 -839 -401 -72 -72 -196 -227 -209
-262 -3 -8 -18 -35 -33 -60 -53 -87 -133 -309 -153 -425 -15 -85 -26 -183 -31
-275 -5 -86 -4 -100 7 -89 7 8 70 79 138 159 69 80 137 159 151 175 15 17 36
41 47 54 l19 24 29 -33 c86 -101 132 -142 185 -169 129 -64 216 -16 329 184
106 186 335 311 553 300 208 -9 373 -78 583 -241 186 -145 314 -333 412 -609
41 -115 96 -328 89 -348 -2 -8 -171 -12 -633 -12 -442 -1 -653 -5 -709 -14
-89 -13 -265 -59 -280 -72 -5 -5 -17 -9 -26 -9 -28 0 -226 -106 -308 -165 -70
-50 -214 -184 -268 -247 -209 -250 -327 -590 -317 -913 5 -153 3 -134 25 -251
68 -364 282 -690 590 -900 188 -127 405 -207 631 -230 66 -7 1490 -12 1521 -5
23 5 23 56 0 130 -13 42 -31 69 -73 111 -75 76 -149 101 -310 106 -112 4 -115
5 -113 27 20 228 4 324 -64 389 -62 59 -71 61 -503 63 -217 2 -406 5 -419 9
-117 28 -202 76 -285 159 -126 127 -167 221 -172 397 -2 104 0 123 25 195 15
44 39 98 53 120 68 107 182 197 308 243 l75 27 1078 3 c839 2 1077 5 1078 15
2 23 -2 272 -6 332 -6 107 -16 249 -20 275 -2 14 -6 48 -9 75 -8 60 -26 192
-31 220 -34 182 -49 247 -90 387 -95 323 -257 633 -461 883 -391 481 -998 740
-1564 668z"/>
<path d="M3922 2914 c-73 -19 -130 -48 -187 -95 -211 -175 -227 -493 -36 -689
184 -188 487 -187 671 2 152 156 175 406 54 584 -112 165 -316 246 -502 198z"/>
</g>
</svg>
