<svg fill="white" version="1.2" xmlns="http://www.w3.org/2000/svg" viewBox="0 0 636 309" width="200" height="97"><style></style><path  aria-label="جفنة"  d="m71.09 26.48q0 10.63-7.64 18.28q-7.65 7.64-18.28 7.64q-10.63 0-18.28-7.64q-7.64-7.65-7.64-18.28q0-10.63 7.64-18.28q7.65-7.64 18.28-7.64q10.63 0 18.28 7.64q7.64 7.65 7.64 18.28zm54.66 0q0 10.47-7.47 18.28q-7.65 7.64-18.45 7.64q-10.63 0-18.27-7.64q-7.65-7.65-7.65-18.28q0-10.63 7.65-18.28q7.64-7.64 18.27-7.64q10.8 0 18.45 7.64q7.47 7.65 7.47 18.28zm-62.47 166.31h5.15q11.96 0.17 23.93 11.97q12.13 11.96 12.13 33.73h-41.21q-23.09 0-43.03-19.94q-19.77-20.11-19.77-47.85q0-27.58 14.95-51.51q14.62-23.76 44.03-38.38q29.24-14.45 76.59-14.45v109.49q0 6.98 4.99 11.96q4.82 4.98 11.96 4.98h18.44v45.7h-18.44q-25.75 0-44.36-18.28q-18.44-18.44-18.44-44.36v-57.99q-44.03 12.96-44.03 52.84q0 9.14 6.48 15.62q6.48 6.47 10.63 6.47zm155.52-149.7q0 10.64-7.65 18.28q-7.64 7.64-18.27 7.64q-10.64 0-18.28-7.64q-7.64-7.64-7.64-18.28q0-10.63 7.64-18.27q7.64-7.64 18.28-7.64q10.63 0 18.27 7.64q7.65 7.64 7.65 18.27zm-11.13 132.76v-54.5q0-17.11 28.41-9.64q-4.32-31.73 17.28-31.73v95.87q0 6.98 4.98 11.96q4.99 4.98 11.96 4.98h10.47v45.7h-10.47q-25.09 0-39.87-14.13q-14.62 14.13-39.71 14.13h-35.39v-45.7h35.39q6.98 0 11.96-4.98q4.99-4.98 4.99-11.96zm149.2 16.94q6.98 0 11.96-4.98q4.82-4.82 4.82-11.96v-43.87q-12.96 3.16-23.26 16.79q-10.14 13.62-10.14 27.41q0 6.65 4.99 11.63q4.98 4.98 11.63 4.98zm23.92-149.7q0 10.64-7.64 18.28q-7.64 7.64-18.28 7.64q-10.63 0-18.27-7.64q-7.65-7.64-7.65-18.28q0-10.63 7.65-18.27q7.64-7.64 18.27-7.64q10.64 0 18.28 7.64q7.64 7.64 7.64 18.27zm-112.81 195.4v-45.7h28.24q-1.66-4.31-1.66-16.61q0-25.25 13.79-47.35q13.46-21.77 40.38-35.39q27.08-13.29 70.61-13.29v96.03q0 12.3-1.66 16.61h21.27v45.7zm293.41 43.86q0 10.63-7.64 18.28q-7.64 7.64-18.27 7.64q-10.64 0-18.28-7.64q-7.64-7.65-7.64-18.28q0-10.63 7.64-18.28q7.64-7.64 18.28-7.64q10.63 0 18.27 7.64q7.64 7.65 7.64 18.28zm-94.04-144.88l-22.92 27.58q0.16-37.55 22.09-60.48q21.44-22.6 54.67-24.42h0.5q0.33-0.17 1.99-0.17l7.14 0.33q27.75 2 51.34 19.44q23.76 17.28 38.38 50.51q14.63 33.23 14.63 88.23h-209.02v-45.7h159.34q-6.65-35.05-25.09-51.17q-18.61-15.78-36.55-15.78q-8.64 0-17.45 4.82q-8.64 5.15-13.29 14.62q-11.3 19.77-25.76-7.81z" /></svg>